<svg xmlns="http://www.w3.org/2000/svg" width="1200" height="740" viewBox="0 0 1200 740"><rect width="1200" height="740" fill="#09090C"/><text x="64" y="74" fill="#FFF2F5" font-family="sans-serif" font-size="28">Hungii · one continuous fork-h</text><g transform="translate(60 140) scale(1.7)"><g fill="#FF526F" fill-rule="evenodd"><path transform="scale(.5)" d="M24 26 C24 18 36 18 36 26 V66 C36 74 45 74 45 66 V26 C45 18 57 18 57 26 V66 C57 74 66 74 66 66 V26 C66 18 78 18 78 26 V71 C78 87 65 92 65 106 V133 C75 120 89 114 107 114 C145 114 170 139 170 174 V231 Q170 234 167 234 H140 Q137 234 137 231 V177 C137 151 126 141 109 141 C81 141 65 159 65 177 V231 Q65 234 62 234 H38 Q35 234 35 231 V106 C35 92 24 87 24 71 Z"/><path d="M96 57 H112 V94 C112 101 117 105 126 105 C136 105 143 99 143 91 V57 H159 V117 H144 V110 C138 116 131 120 121 120 C105 120 96 111 96 96 Z"/><path d="M171 57 H186 V65 C192 59 199 55 209 55 C225 55 234 64 234 79 V117 H218 V81 C218 73 214 69 206 69 C194 69 187 76 187 87 V117 H171 Z"/><path d="M245 86 C245 67 257 55 274 55 C283 55 290 58 295 64 V57 H311 V111 C311 136 297 149 275 149 C264 149 254 146 247 140 L253 127 C260 131 266 134 274 134 C288 134 295 127 295 115 V110 C290 116 283 120 274 120 C257 120 245 106 245 86 Z M261 86 C261 98 268 105 278 105 C288 105 295 98 295 87 C295 76 288 69 278 69 C268 69 261 75 261 86 Z"/><path d="M323 57 H339 V117 H323 Z M339 37 A8 8 0 1 1 323 37 A8 8 0 1 1 339 37 Z"/><path d="M351 57 H367 V117 H351 Z M367 37 A8 8 0 1 1 351 37 A8 8 0 1 1 367 37 Z"/></g></g><g transform="translate(64 455)"><rect width="188" height="188" rx="46" fill="#171319"/><path transform="translate(25.6 4.46) scale(.705)" fill="#FF526F" d="M24 26 C24 18 36 18 36 26 V66 C36 74 45 74 45 66 V26 C45 18 57 18 57 26 V66 C57 74 66 74 66 66 V26 C66 18 78 18 78 26 V71 C78 87 65 92 65 106 V133 C75 120 89 114 107 114 C145 114 170 139 170 174 V231 Q170 234 167 234 H140 Q137 234 137 231 V177 C137 151 126 141 109 141 C81 141 65 159 65 177 V231 Q65 234 62 234 H38 Q35 234 35 231 V106 C35 92 24 87 24 71 Z"/><text x="0" y="226" fill="#B8ABB4" font-family="sans-serif" font-size="17">Crimson / squircle</text></g><g transform="translate(350 455)"><circle cx="94" cy="94" r="94" fill="#171319"/><path transform="translate(25.6 4.46) scale(.705)" fill="#FF526F" d="M24 26 C24 18 36 18 36 26 V66 C36 74 45 74 45 66 V26 C45 18 57 18 57 26 V66 C57 74 66 74 66 66 V26 C66 18 78 18 78 26 V71 C78 87 65 92 65 106 V133 C75 120 89 114 107 114 C145 114 170 139 170 174 V231 Q170 234 167 234 H140 Q137 234 137 231 V177 C137 151 126 141 109 141 C81 141 65 159 65 177 V231 Q65 234 62 234 H38 Q35 234 35 231 V106 C35 92 24 87 24 71 Z"/><text x="0" y="226" fill="#B8ABB4" font-family="sans-serif" font-size="17">Crimson / circle</text></g><g transform="translate(636 455)"><circle cx="94" cy="94" r="94" fill="#E9DBEE"/><path transform="translate(25.6 4.46) scale(.705)" fill="#51435C" d="M24 26 C24 18 36 18 36 26 V66 C36 74 45 74 45 66 V26 C45 18 57 18 57 26 V66 C57 74 66 74 66 66 V26 C66 18 78 18 78 26 V71 C78 87 65 92 65 106 V133 C75 120 89 114 107 114 C145 114 170 139 170 174 V231 Q170 234 167 234 H140 Q137 234 137 231 V177 C137 151 126 141 109 141 C81 141 65 159 65 177 V231 Q65 234 62 234 H38 Q35 234 35 231 V106 C35 92 24 87 24 71 Z"/><text x="0" y="226" fill="#B8ABB4" font-family="sans-serif" font-size="17">Themed / light</text></g><g transform="translate(922 455)"><circle cx="94" cy="94" r="94" fill="#413046"/><path transform="translate(25.6 4.46) scale(.705)" fill="#F0DFF3" d="M24 26 C24 18 36 18 36 26 V66 C36 74 45 74 45 66 V26 C45 18 57 18 57 26 V66 C57 74 66 74 66 66 V26 C66 18 78 18 78 26 V71 C78 87 65 92 65 106 V133 C75 120 89 114 107 114 C145 114 170 139 170 174 V231 Q170 234 167 234 H140 Q137 234 137 231 V177 C137 151 126 141 109 141 C81 141 65 159 65 177 V231 Q65 234 62 234 H38 Q35 234 35 231 V106 C35 92 24 87 24 71 Z"/><text x="0" y="226" fill="#B8ABB4" font-family="sans-serif" font-size="17">Themed / dark</text></g></svg>
